<svg width="230" height="25" viewBox="0 0 230 25" fill="none" xmlns="http://www.w3.org/2000/svg">
<path d="M10 22.5V12.5H6.66669V9.16667H10V7.37667C10 3.9875 11.6509 2.5 14.4675 2.5C15.8167 2.5 16.53 2.6 16.8675 2.64583V5.83333H14.9467C13.7509 5.83333 13.3334 6.46417 13.3334 7.7425V9.16667H16.8375L16.3617 12.5H13.3334V22.5H10Z" fill="white"/>
<path d="M92 5.12142C91.139 5.50326 90.2743 5.7915 89.3159 5.88883C90.2743 5.31234 91.0417 4.354 91.4235 3.29834C90.4652 3.87484 89.5068 4.25667 88.4549 4.45133C87.4966 3.493 86.25 2.9165 84.9098 2.9165C82.3193 2.9165 80.2118 5.02409 80.2118 7.61084C80.2118 7.99642 80.2118 8.37825 80.3091 8.6665C76.3784 8.47559 72.9307 6.65251 70.6284 3.77751C70.1493 4.45133 69.9583 5.31234 69.9583 6.17334C69.9583 7.8055 70.8193 9.243 72.0659 10.104C71.2985 10.0067 70.5348 9.81576 69.9583 9.52751C69.9583 9.52751 69.9583 9.52751 69.9583 9.62484C69.9583 11.9233 71.5868 13.84 73.6943 14.2256C73.3125 14.3192 72.9307 14.4165 72.4515 14.4165C72.1632 14.4165 71.875 14.4165 71.5868 14.3192C72.1632 16.2358 73.889 17.5798 75.9966 17.5798C74.3682 18.8263 72.3542 19.59 70.1493 19.59C69.7674 19.59 69.3818 19.59 69 19.4964C71.1076 20.8366 73.6007 21.604 76.1875 21.604C84.9098 21.604 89.6042 14.4165 89.6042 8.18734C89.6042 7.99642 89.6042 7.8055 89.6042 7.61084C90.5625 6.94075 91.3299 6.07975 92 5.12142Z" fill="white"/>
<path d="M143.5 20.8333H139.333V8.33333H143.5V20.8333ZM141.418 6.66667C140.265 6.66667 139.333 5.7325 139.333 4.5825C139.333 3.4325 140.267 2.5 141.418 2.5C142.566 2.5 143.5 3.43417 143.5 4.5825C143.5 5.7325 142.566 6.66667 141.418 6.66667ZM158.5 20.8333H154.494V14.75C154.494 13.2992 154.467 11.4333 152.412 11.4333C150.326 11.4333 150.005 13.0133 150.005 14.645V20.8333H146V8.32417H149.845V10.0333H149.899C150.434 9.05 151.742 8.01333 153.692 8.01333C157.75 8.01333 158.5 10.6042 158.5 13.9725V20.8333Z" fill="white"/>
<path d="M213 1.5C209.415 1.5 206.5 4.415 206.5 8V17C206.5 20.585 209.415 23.5 213 23.5H222C225.585 23.5 228.5 20.585 228.5 17V8C228.5 4.415 225.585 1.5 222 1.5H213ZM223.5 5.5C224.05 5.5 224.5 5.95 224.5 6.5C224.5 7.05 224.05 7.5 223.5 7.5C222.95 7.5 222.5 7.05 222.5 6.5C222.5 5.95 222.95 5.5 223.5 5.5ZM217.5 7C220.535 7 223 9.465 223 12.5C223 15.535 220.535 18 217.5 18C214.465 18 212 15.535 212 12.5C212 9.465 214.465 7 217.5 7ZM217.5 8C215.02 8 213 10.02 213 12.5C213 14.98 215.02 17 217.5 17C219.98 17 222 14.98 222 12.5C222 10.02 219.98 8 217.5 8Z" fill="white"/>
</svg>
