<svg width="25" height="13" viewBox="0 0 25 13" fill="none" xmlns="http://www.w3.org/2000/svg">
<path d="M24.7136 5.80885C24.7133 5.80856 24.713 5.80822 24.7127 5.80792L19.61 0.729806C19.2277 0.349387 18.6094 0.350802 18.2289 0.733126C17.8484 1.1154 17.8499 1.73371 18.2321 2.11418L21.6581 5.52355H0.976562C0.437207 5.52355 0 5.96075 0 6.50011C0 7.03946 0.437207 7.47667 0.976562 7.47667H21.6581L18.2322 10.886C17.8499 11.2665 17.8484 11.8848 18.2289 12.2671C18.6094 12.6495 19.2278 12.6508 19.61 12.2704L24.7127 7.1923C24.713 7.192 24.7133 7.19166 24.7136 7.19137C25.0961 6.80963 25.0949 6.18932 24.7136 5.80885Z" fill="white"/>
</svg>
